<svg id="Layer_1" data-name="Layer 1" xmlns="http://www.w3.org/2000/svg" viewBox="0 0 189.23 283.83"><defs><style>.cls-1{fill:#1d1d1b;}</style></defs><title>logo_WWF</title><path class="cls-1" d="M219.56,432.91a4,4,0,0,0-3.76,2.6l-7.59,19.29-.73,2.21-.59-2.23L201,436a.25.25,0,0,0-.06-.2h0a4,4,0,0,0-3.77-2.68H187.6a4,4,0,0,0-3.8,4,7.85,7.85,0,0,0,.43,2l1.26,3.92-4.67,11.76-.76,2.19-.59-2.21L173.57,436a1.5,1.5,0,0,0-.06-.2h0a4,4,0,0,0-3.76-2.68H160.2a4,4,0,0,0-3.81,4,8.18,8.18,0,0,0,.43,2l14.3,42.54a4,4,0,0,0,7.72.23l10-25.26.71-2.23.61,2.21,8.4,25a4,4,0,0,0,7.77.09l16.91-43.1a4,4,0,0,0-3.64-5.77Z" transform="translate(-153.53 -200.9)"/><path class="cls-1" d="M290.64,432.91a4,4,0,0,0-3.76,2.6l-7.59,19.29-.73,2.21-.59-2.23-5.9-18.8a.25.25,0,0,0-.06-.2h0a4,4,0,0,0-3.77-2.68H258.7a4,4,0,0,0-3.81,4,7.88,7.88,0,0,0,.44,2L256.6,443l-4.68,11.76-.76,2.19-.59-2.21L244.65,436a.25.25,0,0,0-.06-.2h0a4,4,0,0,0-3.77-2.68h-9.54a4,4,0,0,0-3.81,4,7.84,7.84,0,0,0,.43,2l14.3,42.54a4,4,0,0,0,7.72.23l10-25.26.71-2.23.6,2.21,8.4,25a4,4,0,0,0,7.77.09l16.91-43.1a4,4,0,0,0-3.64-5.77Z" transform="translate(-153.53 -200.9)"/><path class="cls-1" d="M336.83,433H303.49a3.48,3.48,0,0,0-3.48,3.48h0v44.27h0a3.76,3.76,0,0,0,3.75,3.59h9.43a3.74,3.74,0,0,0,3.69-3.7V460h13.59a3.66,3.66,0,0,0-.06-7.31H316.89v-11.8H337a3.91,3.91,0,0,0-.16-7.82Z" transform="translate(-153.53 -200.9)"/><path class="cls-1" d="M285.12,291.93c6.09,6.78,6.71,27,22,18.94,9.15-4.83,9-25.22-3.16-32.58-9.91-5.86-15.32,2-18.91,11.7a2,2,0,0,0,.1,2Z" transform="translate(-153.53 -200.9)"/><path class="cls-1" d="M261.43,288.66c-6.34,5.29-10.7,19.75-22.45,14.86-9.45-4.83-10.36-23.57,6-32.25,11.38-5.23,17.15,5.14,17.2,16.12a2.09,2.09,0,0,1-.7,1.27Z" transform="translate(-153.53 -200.9)"/><path class="cls-1" d="M277.16,325.58c6.3-.64,4.9-6.47.13-7.91a56.23,56.23,0,0,0-15.29-2c-8.1.18-7.88,6.37-3.68,7.42,3.16,1,5.25,1.47,8,5,2.52,4.84,1.38-1.48,10.85-2.52Z" transform="translate(-153.53 -200.9)"/><path class="cls-1" d="M306.89,221.15c7.91-13.16,21.67-10.62,28.58-4.05,7.53,7.14,8.74,15.36,5.82,21.15-3.93,7.79-14,17.2-20.64,8.07-2.91-4-9.09-8.83-12.45-10.24-5.15-2.16-6.17-6.86-1.31-14.92Z" transform="translate(-153.53 -200.9)"/><path class="cls-1" d="M338.35,279.19c-.71-2.34-1.87-2.2-1.85-.27.7,24-13.66,49.69-44.32,49.84-7.83,0-5.49,12.59-19.78,6.28-10.3-6.93-16.18,6.73-23.54-8-1.6-4.27-4-6-7.15-6.72-30.3-7.52-39.94-49.18-13.24-82.82,5.25,3.16,7.2,3.65,12.84-1.54a40.63,40.63,0,0,1,10.56-6.71c6.4-2.42,9.86-5.16,4.35-17.4C249.06,196,234.5,200.48,227.83,206c-7.54,6.19-12.81,16.19-3.13,28-27.12,18.28-31.75,40.77-31.12,60.31.59,20.74-4.69,19,2,40.13.58,1.84-.75,1.8-1.71,1.22-28.26-18.12-43.53-73.3.49-103.73,1-.84.62-2-3,.08-38.13,20.16-41.65,59.25-35.32,85.54,3.1,12.76-1.59,15.11,3.34,31.85,11.29,34.83,21,37.6,34.62,38.6,24.88,0,8-13.75,8.93-31,0-1,1.22-1.5,1.91.59,13.69,30.71,23.36,58.62,59.36,56,20.81-2.73,9.25-13,8-18.91-15.34-50.87,21.85-62.84,11.34-13.24-6.93,28.39,15,25.55,30.48,15.35,15.92-10.49,35.88-79.64,24.34-117.66Zm-60.62,60.14c-3.45,9.09-21.35,6-21.9-2.84,0-.38.49-.27.69-.23A97.45,97.45,0,0,0,277.17,339c.17,0,.63-.11.55.35Z" transform="translate(-153.53 -200.9)"/><path class="cls-1" d="M197.88,401a6.66,6.66,0,1,1-6.66-6.66A6.66,6.66,0,0,1,197.88,401Zm-6.66-8a8,8,0,1,0,8,8A8,8,0,0,0,191.22,393Z" transform="translate(-153.53 -200.9)"/><path class="cls-1" d="M193.49,402.18a2,2,0,0,1-2,1.64,2.66,2.66,0,0,1-2.55-2.77s0-.09,0-.13c0-1.61.87-2.83,2.49-2.83a2,2,0,0,1,2.09,1.57h1.16a3.08,3.08,0,0,0-3.27-2.71,3.69,3.69,0,0,0-3.79,4,3.78,3.78,0,0,0,3.55,4h.3a3.24,3.24,0,0,0,3.22-2.79Z" transform="translate(-153.53 -200.9)"/><path class="cls-1" d="M338.14,420a6.66,6.66,0,1,1-6.66-6.66,6.66,6.66,0,0,1,6.66,6.66Zm-6.66-8a8,8,0,1,0,8,8h0A8,8,0,0,0,331.48,412Z" transform="translate(-153.53 -200.9)"/><path class="cls-1" d="M330.1,420.51h1.31l2,3.26h1.28l-2.15-3.31a2,2,0,0,0,2-2s0-.05,0-.08c0-1.48-.87-2.14-2.66-2.14H329v7.53h1.14Zm0-1v-2.34h1.55c.79,0,1.64.18,1.64,1.11,0,1.16-.87,1.23-1.83,1.23Z" transform="translate(-153.53 -200.9)"/></svg>